<svg width="151" height="28" viewBox="0 0 151 28" fill="none" xmlns="http://www.w3.org/2000/svg">
<path d="M0.52 2.088C3.304 1.896 5.764 1.8 7.9 1.8C13.828 1.8 16.792 3.78 16.792 7.74C16.792 9.228 16.36 10.512 15.496 11.592C14.632 12.648 13.252 13.368 11.356 13.752C13.18 13.968 14.62 14.52 15.676 15.408C16.732 16.296 17.26 17.844 17.26 20.052C17.26 24.684 14.296 27 8.368 27H0.52V2.088ZM3.508 26.64H8.368C10.504 26.64 12.016 26.088 12.904 24.984C13.816 23.856 14.272 22.14 14.272 19.836C14.272 17.532 13.816 15.996 12.904 15.228C11.992 14.46 10.636 14.052 8.836 14.004H3.508V26.64ZM7.9 2.16C6.508 2.16 5.044 2.244 3.508 2.412V13.644H8.836C12.22 13.5 13.912 11.556 13.912 7.812C13.912 5.988 13.408 4.596 12.4 3.636C11.392 2.652 9.892 2.16 7.9 2.16ZM22.4193 18.216C22.4193 21.192 22.9353 23.376 23.9673 24.768C25.0233 26.16 26.4033 26.856 28.1073 26.856C30.5073 26.856 32.6433 26.496 34.5153 25.776L34.6233 26.028C32.7033 26.772 30.5313 27.144 28.1073 27.144C25.7073 27.144 23.7513 26.424 22.2393 24.984C20.7273 23.544 19.9713 21.324 19.9713 18.324C19.9713 15.324 20.7633 12.996 22.3473 11.34C23.9313 9.684 25.9473 8.856 28.3953 8.856C30.3633 8.856 32.0193 9.444 33.3633 10.62C34.7073 11.796 35.3793 13.536 35.3793 15.84C35.3793 15.96 35.3793 16.08 35.3793 16.2H22.5273C22.4553 16.848 22.4193 17.52 22.4193 18.216ZM32.9313 15.912C32.9073 13.608 32.4633 11.904 31.5993 10.8C30.7353 9.696 29.6193 9.144 28.2513 9.144C26.8833 9.144 25.6593 9.744 24.5793 10.944C23.5233 12.144 22.8513 13.8 22.5633 15.912H32.9313ZM52.8041 27C51.1721 27 50.0561 26.688 49.4561 26.064C48.9041 25.536 48.6281 25.08 48.6281 24.696V23.94C47.4521 26.076 45.5681 27.144 42.9761 27.144C39.9521 27.144 38.2361 25.776 37.8281 23.04C37.7801 22.752 37.7561 22.464 37.7561 22.176C37.7561 21.864 37.8041 21.528 37.9001 21.168C37.9961 20.808 38.2721 20.412 38.7281 19.98C39.6401 19.116 41.6441 18.588 44.7401 18.396C45.5081 18.324 46.2161 18.288 46.8641 18.288C47.5121 18.288 48.1001 18.312 48.6281 18.36V12.384C48.5801 12.36 48.5801 12.252 48.6281 12.06C48.6761 11.844 48.6281 11.58 48.4841 11.268C48.3641 10.932 48.1961 10.608 47.9801 10.296C47.7641 9.984 47.3801 9.72 46.8281 9.504C46.2761 9.264 45.5561 9.144 44.6681 9.144C43.7801 9.144 42.7361 9.312 41.5361 9.648C40.3601 9.96 39.4961 10.272 38.9441 10.584L38.8001 10.332C40.9361 9.348 43.1081 8.856 45.3161 8.856C47.7881 8.856 49.4201 9.3 50.2121 10.188C50.8361 10.884 51.1481 11.616 51.1481 12.384V24.444C51.1481 25.14 51.2801 25.68 51.5441 26.064C51.8321 26.424 52.1201 26.616 52.4081 26.64L52.8041 26.712H53.9201V27H52.8041ZM43.5521 26.856C44.8241 26.856 45.9641 26.424 46.9721 25.56C48.0041 24.672 48.5561 23.82 48.6281 23.004V18.648C47.9801 18.6 47.3201 18.576 46.6481 18.576C46.0001 18.576 45.3521 18.612 44.7041 18.684C42.8801 18.9 41.6921 19.308 41.1401 19.908C40.5881 20.508 40.3121 21.336 40.3121 22.392C40.3121 22.584 40.3241 22.8 40.3481 23.04C40.5641 25.584 41.6321 26.856 43.5521 26.856ZM64.3249 9.144C62.6209 9.144 61.1929 9.96 60.0409 11.592C58.9129 13.224 58.3489 15.48 58.3489 18.36C58.3489 21.24 58.8649 23.376 59.8969 24.768C60.9529 26.16 62.3329 26.856 64.0369 26.856C66.1729 26.856 68.0689 26.496 69.7249 25.776L69.8329 26.028C68.1289 26.772 66.1369 27.144 63.8569 27.144C61.5769 27.144 59.6809 26.424 58.1689 24.984C56.6569 23.544 55.9009 21.324 55.9009 18.324C55.9009 15.324 56.6929 12.996 58.2769 11.34C59.8609 9.684 61.8769 8.856 64.3249 8.856C65.6929 8.856 66.9529 9.168 68.1049 9.792C69.2809 10.416 70.1449 11.364 70.6969 12.636H68.3929C68.0329 11.46 67.4809 10.584 66.7369 10.008C66.0169 9.432 65.2129 9.144 64.3249 9.144ZM88.353 27C87.369 27 86.613 26.784 86.085 26.352C85.581 25.92 85.317 25.488 85.293 25.056L85.257 24.444V13.14C85.257 11.244 84.753 10.032 83.745 9.504C83.265 9.264 82.653 9.144 81.909 9.144C80.421 9.144 79.077 9.756 77.877 10.98C76.701 12.18 76.113 13.26 76.113 14.22V27H73.593V0.0359995H76.113V13.104C76.497 12.072 77.229 11.112 78.309 10.224C79.389 9.312 80.601 8.856 81.945 8.856C84.273 8.856 85.821 9.264 86.589 10.08C87.381 10.872 87.777 11.904 87.777 13.176V24.444C87.777 25.14 87.909 25.68 88.173 26.064C88.461 26.424 88.737 26.616 89.001 26.64L89.433 26.712H90.549V27H88.353ZM118.359 3.312C116.175 2.472 114.111 2.052 112.167 2.052C110.247 2.052 108.747 2.46 107.667 3.276C106.587 4.092 106.047 5.22 106.047 6.66C106.047 8.412 106.959 9.768 108.783 10.728C109.599 11.136 110.487 11.52 111.447 11.88C112.431 12.216 113.415 12.6 114.399 13.032C115.383 13.464 116.283 13.956 117.099 14.508C117.915 15.06 118.575 15.828 119.079 16.812C119.583 17.772 119.835 19.008 119.835 20.52C119.835 22.008 119.415 23.28 118.575 24.336C117.735 25.392 116.715 26.112 115.515 26.496C114.339 26.856 112.959 27.036 111.375 27.036C108.423 27.036 105.903 26.304 103.815 24.84L103.995 24.552C104.787 25.176 105.807 25.692 107.055 26.1C108.327 26.484 109.623 26.676 110.943 26.676C112.887 26.676 114.543 26.232 115.911 25.344C117.303 24.432 117.999 23.1 117.999 21.348C117.999 19.428 117.087 17.928 115.263 16.848C114.447 16.368 113.547 15.924 112.563 15.516C111.603 15.108 110.631 14.688 109.647 14.256C108.663 13.8 107.763 13.296 106.947 12.744C105.123 11.544 104.211 9.84 104.211 7.632C104.211 5.88 104.799 4.464 105.975 3.384C107.151 2.28 108.915 1.728 111.267 1.728C113.643 1.728 116.055 2.136 118.503 2.952L118.359 3.312ZM123.242 27.144C122.93 27.144 122.654 27.036 122.414 26.82C122.198 26.58 122.09 26.304 122.09 25.992C122.09 25.656 122.198 25.38 122.414 25.164C122.63 24.948 122.894 24.84 123.206 24.84C123.542 24.84 123.818 24.96 124.034 25.2C124.274 25.416 124.394 25.68 124.394 25.992C124.394 26.304 124.274 26.58 124.034 26.82C123.818 27.036 123.554 27.144 123.242 27.144ZM126.567 27H126.135L136.899 1.8L137.295 1.62L146.367 27H143.307L140.499 19.08H129.987L126.567 27ZM135.783 5.688L130.131 18.72H140.391L135.783 5.688ZM149.609 27.144C149.297 27.144 149.021 27.036 148.781 26.82C148.565 26.58 148.457 26.304 148.457 25.992C148.457 25.656 148.565 25.38 148.781 25.164C148.997 24.948 149.261 24.84 149.573 24.84C149.909 24.84 150.185 24.96 150.401 25.2C150.641 25.416 150.761 25.68 150.761 25.992C150.761 26.304 150.641 26.58 150.401 26.82C150.185 27.036 149.921 27.144 149.609 27.144Z" fill="white"/>
</svg>
